<?xml version="1.0" encoding="UTF-8"?>
<svg version="1.1" xmlns="http://www.w3.org/2000/svg" width="521" height="480">
<path d="M0 0 C4.9681384 3.01693093 10.02116371 5.88808196 15.06201172 8.78125 C17.31087255 10.07654011 19.55956842 11.37211666 21.80810547 12.66796875 C22.93716309 13.31813965 24.0662207 13.96831055 25.22949219 14.63818359 C30.69621152 17.78707054 36.16026059 20.94058264 41.62451172 24.09375 C43.79116483 25.3437735 45.95783151 26.59377347 48.12451172 27.84375 C69.79117839 40.34375 91.45784505 52.84375 113.12451172 65.34375 C114.73567871 66.27320435 114.73567871 66.27320435 116.37939453 67.22143555 C118.52993715 68.46222033 120.68032963 69.70326535 122.83056641 70.94458008 C127.88828985 73.86394474 132.94745665 76.78071209 138.01208496 79.68807983 C140.39374674 81.05549766 142.77454191 82.42442039 145.15527344 83.79345703 C146.82777193 84.75439553 148.50151508 85.71316672 150.17529297 86.671875 C164.19611013 94.73694682 164.19611013 94.73694682 165.62451172 97.59375 C165.68956244 100.04283061 165.69469423 102.46273194 165.65527344 104.91064453 C165.63916025 106.47616174 165.6234637 108.04168328 165.60812378 109.60720825 C165.59858547 110.44033665 165.58904716 111.27346504 165.57921982 112.13183975 C165.52750582 117.49476044 165.53342662 122.85800221 165.52786064 128.22113228 C165.51968854 132.92043769 165.49236146 137.6180742 165.42236328 142.31689453 C165.35564689 146.87168727 165.34407384 151.42384479 165.36761856 155.97903061 C165.36701457 157.7019813 165.34734121 159.42505084 165.30685043 161.14752579 C165.03833879 173.20045852 167.26514411 180.46643976 174.8352356 189.93746948 C193.97435507 213.8851338 195.78725418 250.54288363 192.61083984 279.63354492 C190.78497278 294.38104898 185.60184686 308.06609677 179.62451172 321.59375 C180.35847168 321.69469971 181.09243164 321.79564941 181.84863281 321.8996582 C184.94009344 322.67265931 186.54549362 323.73935145 189.03857422 325.69921875 C189.87275879 326.34624756 190.70694336 326.99327637 191.56640625 327.65991211 C192.45183105 328.35995361 193.33725586 329.05999512 194.24951172 329.78125 C196.13381929 331.24621935 198.01926036 332.70973177 199.90576172 334.171875 C200.85837891 334.91244141 201.81099609 335.65300781 202.79248047 336.41601562 C207.05746355 339.69564055 211.40150252 342.86307613 215.74951172 346.03125 C236.95611996 361.58857473 236.95611996 361.58857473 239.62451172 369.59375 C240.57037648 384.07275674 236.88348209 390.82248114 227.62451172 401.59375 C226.97482422 402.39039063 226.32513672 403.18703125 225.65576172 404.0078125 C225.06794922 404.71679688 224.48013672 405.42578125 223.87451172 406.15625 C223.36404297 406.77628906 222.85357422 407.39632813 222.32763672 408.03515625 C217.67657963 412.29151354 212.1420919 411.95958129 206.18701172 411.96875 C205.35363281 411.99324219 204.52025391 412.01773437 203.66162109 412.04296875 C194.73003161 412.08533202 189.98697196 407.27076448 183.81201172 401.40625 C183.14766113 400.78057129 182.48331055 400.15489258 181.79882812 399.51025391 C173.78115626 391.89373426 166.00437337 384.02756089 158.23071289 376.16333008 C157.44456352 375.37073036 157.44456352 375.37073036 156.64253235 374.56211853 C155.2086082 373.11612038 153.77754481 371.66728695 152.34667969 370.21826172 C149.54037289 367.5126296 146.64719447 365.05200605 143.62451172 362.59375 C142.79951172 363.16222656 141.97451172 363.73070312 141.12451172 364.31640625 C129.62768963 372.07321692 117.84482905 377.59902734 104.49951172 381.40625 C103.82049805 381.6012207 103.14148438 381.79619141 102.44189453 381.99707031 C91.80844497 384.83432485 81.60686916 385.76898454 70.64233398 385.05517578 C53.78314155 384.12458361 42.76191299 388.07942533 28.64941406 397.59619141 C23.57690928 400.94592781 18.27618038 403.89320173 12.99951172 406.90625 C5.62365855 411.20594344 -1.72407644 415.55329467 -9.00097656 420.01879883 C-15.94789222 424.24740104 -22.36245796 424.47249076 -30.37548828 423.59375 C-34.68803586 422.07654822 -38.3826463 419.88500132 -42.25048828 417.46875 C-43.31855713 416.83638428 -44.38662598 416.20401855 -45.48706055 415.55249023 C-47.70709129 414.2356777 -49.91977048 412.90639379 -52.125 411.56494141 C-56.17403209 409.10948962 -60.26736594 406.73587329 -64.36572266 404.36401367 C-67.34481406 402.63780887 -70.31598663 400.89862664 -73.28564453 399.15625 C-79.59119247 395.4616169 -85.91843264 391.80522319 -92.25048828 388.15625 C-93.33064209 387.53371338 -94.4107959 386.91117676 -95.52368164 386.26977539 C-97.71345162 385.00798174 -99.90331183 383.74634466 -102.09326172 382.48486328 C-107.5220877 379.35694852 -112.94868109 376.22516552 -118.37548828 373.09375 C-120.54214411 371.84373121 -122.70881078 370.59373122 -124.87548828 369.34375 C-137.87548828 361.84375 -150.87548828 354.34375 -163.87548828 346.84375 C-164.94992188 346.22395264 -166.02435547 345.60415527 -167.13134766 344.96557617 C-169.27872201 343.72656961 -171.42586095 342.48715497 -173.57275391 341.24731445 C-178.66620658 338.3064888 -183.76203971 335.37002381 -188.86621094 332.44784546 C-191.28705448 331.06156169 -193.70656718 329.67296453 -196.12597656 328.28417969 C-197.84196445 327.30046796 -199.55988021 326.32012165 -201.27783203 325.33984375 C-202.82664062 324.45039062 -202.82664062 324.45039062 -204.40673828 323.54296875 C-205.77668945 322.75925903 -205.77668945 322.75925903 -207.17431641 321.9597168 C-209.57964737 320.46705634 -211.09553899 319.44943627 -211.99227405 316.70849746 C-212.63535909 313.15966673 -212.51972202 309.57910481 -212.51593018 305.98414612 C-212.52038686 304.66736568 -212.52038686 304.66736568 -212.52493358 303.32398361 C-212.5336184 300.37686813 -212.53512863 297.42979328 -212.53662109 294.48266602 C-212.54124932 292.37198805 -212.54627399 290.26131092 -212.55166626 288.15063477 C-212.5647895 282.4131159 -212.57123477 276.67560874 -212.57567692 270.93807721 C-212.57860702 267.35531726 -212.58271165 263.77256051 -212.58718109 260.18980217 C-212.60085417 248.98515925 -212.61052246 237.78052364 -212.61438298 226.57587296 C-212.61886714 213.63181099 -212.63643245 200.68785444 -212.66538358 187.74382454 C-212.68697584 177.74374631 -212.69708591 167.7436978 -212.6984241 157.74359649 C-212.69947364 151.76811067 -212.70541351 145.79272398 -212.72324371 139.81726265 C-212.73968251 134.19893062 -212.7419003 128.58077269 -212.73310471 122.96242523 C-212.73233215 120.8988314 -212.73670564 118.83522837 -212.74656296 116.77165794 C-212.75921821 113.95767531 -212.7534407 111.14431533 -212.74298096 108.33033752 C-212.75103736 107.51107633 -212.75909377 106.69181513 -212.7673943 105.84772784 C-212.72733788 101.24983106 -212.27822711 98.22208075 -209.37548828 94.59375 C-207.03528132 92.97065564 -204.79493602 91.58465217 -202.31298828 90.21875 C-201.5762085 89.79940186 -200.83942871 89.38005371 -200.08032227 88.94799805 C-198.42709116 88.00711431 -196.77107373 87.0711152 -195.11279297 86.13916016 C-191.12703292 83.88890497 -187.16892805 81.59153334 -183.20776367 79.29833984 C-179.87157469 77.36781908 -176.53221274 75.44289757 -173.19189453 73.51953125 C-166.58433793 69.71455182 -159.97961135 65.9046849 -153.37548828 62.09375 C-151.20883517 60.8437265 -149.04216849 59.59372653 -146.87548828 58.34375 C-145.80298828 57.725 -144.73048828 57.10625 -143.62548828 56.46875 C-133.87548828 50.84375 -133.87548828 50.84375 -130.625 48.96850586 C-128.45991757 47.71939482 -126.29487846 46.47020871 -124.12988281 45.22094727 C-118.68933122 42.08172691 -113.24801612 38.94384437 -107.80517578 35.80859375 C-97.35342679 29.786277 -86.9124494 23.74713042 -76.50048828 17.65625 C-66.22367778 11.64481263 -55.89579839 5.72549685 -45.54980469 -0.16577148 C-44.42622559 -0.80587158 -43.30264648 -1.44597168 -42.14501953 -2.10546875 C-41.15091064 -2.67096436 -40.15680176 -3.23645996 -39.13256836 -3.8190918 C-37.31298077 -4.86656713 -35.50625558 -5.93675226 -33.71411133 -7.03051758 C-21.14590682 -14.42396495 -10.84524326 -6.68336756 0 0 Z " fill="#0087DB" transform="translate(250.37548828125,36.40625)"/>
<path d="M0 0 C0.556875 0.226875 1.11375 0.45375 1.6875 0.6875 C1.01920166 1.0592334 0.35090332 1.4309668 -0.33764648 1.81396484 C-17.11938534 11.1533349 -17.11938534 11.1533349 -33.7265625 20.79760742 C-40.03921477 24.53974409 -46.39153766 28.21131678 -52.75 31.875 C-53.85722412 32.51300537 -54.96444824 33.15101074 -56.10522461 33.80834961 C-58.37587068 35.11639477 -60.64662358 36.42425448 -62.91748047 37.73193359 C-68.3841998 40.88082054 -73.84824887 44.03433264 -79.3125 47.1875 C-81.47915311 48.4375235 -83.64581979 49.68752347 -85.8125 50.9375 C-86.885 51.55625 -87.9575 52.175 -89.0625 52.8125 C-124.8125 73.4375 -124.8125 73.4375 -128.06811523 75.31567383 C-130.21614046 76.55496267 -132.36409075 77.79438141 -134.51196289 79.03393555 C-139.59905549 81.96952567 -144.68691847 84.90375672 -149.7774353 87.83340454 C-152.18793748 89.22078095 -154.59801376 90.60889624 -157.00805664 91.99707031 C-158.71393968 92.97923815 -160.42043986 93.96033385 -162.12695312 94.94140625 C-163.67092773 95.83085937 -163.67092773 95.83085937 -165.24609375 96.73828125 C-166.6081897 97.52199097 -166.6081897 97.52199097 -167.99780273 98.3215332 C-169.80376201 99.38727966 -171.56771129 100.52430752 -173.3125 101.6875 C-173.61906932 104.47185075 -173.72804877 107.03633396 -173.71122742 109.82449341 C-173.71787424 110.67558115 -173.72452107 111.52666889 -173.73136932 112.40354717 C-173.75010782 115.27191794 -173.74738678 118.13987556 -173.74487305 121.00830078 C-173.75388359 123.05783686 -173.76420905 125.10736752 -173.77575684 127.15689087 C-173.80343607 132.73512099 -173.81262614 138.31324917 -173.81861091 143.8915391 C-173.82796625 149.71589132 -173.85416721 155.54016654 -173.87861633 161.36447144 C-173.92236343 172.40000504 -173.95085991 183.43552378 -173.97393972 194.47111785 C-174.00094747 207.03203346 -174.04486162 219.59287191 -174.09022844 232.15373254 C-174.18319228 257.99827992 -174.25481916 283.8428515 -174.3125 309.6875 C-173.39243164 309.97923096 -172.47236328 310.27096191 -171.52441406 310.5715332 C-167.72893157 311.89025854 -164.47448067 313.7960258 -161.0625 315.875 C-159.54631085 316.78248405 -158.02933112 317.68864806 -156.51171875 318.59375 C-155.26914307 319.33625 -155.26914307 319.33625 -154.00146484 320.09375 C-148.98582135 323.0665229 -143.92831773 325.96689472 -138.875 328.875 C-137.21645996 329.83055786 -137.21645996 329.83055786 -135.52441406 330.80541992 C-133.25225918 332.11450657 -130.97995991 333.42334262 -128.70751953 334.73193359 C-123.24080025 337.88082051 -117.77672354 341.0342849 -112.3125 344.1875 C-105.79017561 347.95115365 -99.26736237 351.71394623 -92.7421875 355.47265625 C-82.29043801 361.49497329 -71.84950452 367.53419337 -61.4375 373.625 C-52.17556732 379.04199477 -42.87098187 384.38136704 -33.54821777 389.69262695 C-23.86163554 395.21223501 -14.21679705 400.79904655 -4.59765625 406.43554688 C-3.66566406 406.98146484 -2.73367187 407.52738281 -1.7734375 408.08984375 C-0.95665527 408.56929443 -0.13987305 409.04874512 0.70166016 409.54272461 C2.00877574 410.29623641 3.3380316 411.0127658 4.6875 411.6875 C4.89704627 401.48171505 5.05645355 391.27645083 5.15380955 381.06894398 C5.20056305 376.32781717 5.26385887 371.58817366 5.36645508 366.84790039 C5.46504183 362.26360946 5.51822139 357.68073476 5.54139519 353.09546471 C5.55788474 351.35597143 5.59008386 349.61654612 5.63907051 347.87766457 C5.98288595 335.15439408 3.920924 328.50139421 -4.3125 318.6875 C-19.77647318 294.00661736 -25.47457221 263.13866769 -19.3125 234.6875 C-19.05597656 233.4396875 -18.79945313 232.191875 -18.53515625 230.90625 C-13.6313038 208.49920578 -2.32394794 189.88272352 13.6875 173.6875 C14.26628906 173.03652344 14.84507812 172.38554687 15.44140625 171.71484375 C30.96725563 154.56749574 57.28477448 143.2010142 79.91601562 140.81567383 C83.30575779 140.65890721 86.62324748 140.82915394 90.01171875 141.01171875 C107.76900526 141.92106285 119.91545383 140.82263505 135.015625 130.47558594 C139.77435414 127.29092473 144.78300866 124.53120639 149.75 121.6875 C151.74499114 120.52079295 153.73849234 119.35153433 155.73046875 118.1796875 C161.66047308 114.69947782 167.60369156 111.24315729 173.5625 107.8125 C174.45461182 107.29429687 175.34672363 106.77609375 176.26586914 106.2421875 C177.49164673 105.53835937 177.49164673 105.53835937 178.7421875 104.8203125 C179.45874512 104.40668457 180.17530273 103.99305664 180.91357422 103.56689453 C182.6875 102.6875 182.6875 102.6875 184.6875 102.6875 C181.91012654 99.69864732 179.24821009 97.67699092 175.671875 95.7265625 C174.18506226 94.9068396 174.18506226 94.9068396 172.66821289 94.07055664 C171.60207764 93.49039795 170.53594238 92.91023926 169.4375 92.3125 C167.15916234 91.05518476 164.88184262 89.79602346 162.60546875 88.53515625 C162.02594955 88.21471848 161.44643036 87.8942807 160.84934998 87.56413269 C155.0993589 84.37775847 149.41951056 81.076851 143.75 77.75 C141.75918508 76.58321304 139.768299 75.4165475 137.77734375 74.25 C136.7807373 73.66605469 135.78413086 73.08210938 134.75732422 72.48046875 C129.4542275 69.38312962 124.13355065 66.31636142 118.8125 63.25 C117.73234619 62.62746338 116.65219238 62.00492676 115.53930664 61.36352539 C113.34953666 60.10173174 111.15967645 58.84009466 108.96972656 57.57861328 C103.54090058 54.45069852 98.11430719 51.31891552 92.6875 48.1875 C90.52084417 46.93748121 88.3541775 45.68748122 86.1875 44.4375 C81.85416667 41.9375 77.52083333 39.4375 73.1875 36.9375 C72.1142749 36.31834717 71.0410498 35.69919434 69.93530273 35.0612793 C67.77590605 33.8154423 65.61656331 32.56951182 63.45727539 31.32348633 C57.92982403 28.13401047 52.40134879 24.94633115 46.87109375 21.76171875 C34.77563954 14.79427118 22.69964469 7.79775277 10.6875 0.6875 C12.2421875 -0.0625 12.2421875 -0.0625 14.6875 -0.3125 C17.20450447 0.91830903 19.45383094 2.1983605 21.8125 3.6875 C23.34663676 4.6227681 24.88186498 5.55624734 26.41796875 6.48828125 C27.2589209 7.00213379 28.09987305 7.51598633 28.96630859 8.04541016 C33.97356034 11.0670121 39.05361977 13.96279717 44.125 16.875 C46.37382852 18.1703462 48.62252468 19.46592222 50.87109375 20.76171875 C52.00015137 21.41188965 53.12920898 22.06206055 54.29248047 22.73193359 C59.7591998 25.88082054 65.22324887 29.03433264 70.6875 32.1875 C72.85415311 33.4375235 75.02081979 34.68752347 77.1875 35.9375 C98.85416667 48.4375 120.52083333 60.9375 142.1875 73.4375 C143.79866699 74.36695435 143.79866699 74.36695435 145.44238281 75.31518555 C147.59292543 76.55597033 149.74331792 77.79701535 151.89355469 79.03833008 C156.95127813 81.95769474 162.01044493 84.87446209 167.07507324 87.78182983 C169.45673502 89.14924766 171.8375302 90.51817039 174.21826172 91.88720703 C175.89076021 92.84814553 177.56450336 93.80691672 179.23828125 94.765625 C193.25909841 102.83069682 193.25909841 102.83069682 194.6875 105.6875 C194.75255072 108.13658061 194.75768251 110.55648194 194.71826172 113.00439453 C194.70214853 114.56991174 194.68645198 116.13543328 194.67111206 117.70095825 C194.66157375 118.53408665 194.65203545 119.36721504 194.6422081 120.22558975 C194.5904941 125.58851044 194.5964149 130.95175221 194.59084892 136.31488228 C194.58267682 141.01418769 194.55534974 145.7118242 194.48535156 150.41064453 C194.41863517 154.96543727 194.40706212 159.51759479 194.43060684 164.07278061 C194.43000285 165.7957313 194.41032949 167.51880084 194.36983871 169.24127579 C194.10132707 181.29420852 196.32813239 188.56018976 203.89822388 198.03121948 C223.03734335 221.9788838 224.85024246 258.63663363 221.67382812 287.72729492 C219.84796107 302.47479898 214.66483515 316.15984677 208.6875 329.6875 C209.42145996 329.78844971 210.15541992 329.88939941 210.91162109 329.9934082 C214.00308173 330.76640931 215.6084819 331.83310145 218.1015625 333.79296875 C218.93574707 334.43999756 219.76993164 335.08702637 220.62939453 335.75366211 C221.51481934 336.45370361 222.40024414 337.15374512 223.3125 337.875 C225.19680757 339.33996935 227.08224864 340.80348177 228.96875 342.265625 C229.92136719 343.00619141 230.87398438 343.74675781 231.85546875 344.50976562 C236.12045183 347.78939055 240.4644908 350.95682613 244.8125 354.125 C266.01910824 369.68232473 266.01910824 369.68232473 268.6875 377.6875 C269.63336476 392.16650674 265.94647037 398.91623114 256.6875 409.6875 C256.0378125 410.48414063 255.388125 411.28078125 254.71875 412.1015625 C254.1309375 412.81054688 253.543125 413.51953125 252.9375 414.25 C252.42703125 414.87003906 251.9165625 415.49007813 251.390625 416.12890625 C246.73956791 420.38526354 241.20508018 420.05333129 235.25 420.0625 C234.41662109 420.08699219 233.58324219 420.11148437 232.72460938 420.13671875 C223.79301989 420.17908202 219.04996024 415.36451448 212.875 409.5 C212.21064941 408.87432129 211.54629883 408.24864258 210.86181641 407.60400391 C202.84414454 399.98748426 195.06736166 392.12131089 187.29370117 384.25708008 C186.5075518 383.46448036 186.5075518 383.46448036 185.70552063 382.65586853 C184.27159648 381.20987038 182.84053309 379.76103695 181.40966797 378.31201172 C178.60336117 375.6063796 175.71018275 373.14575605 172.6875 370.6875 C171.8625 371.25597656 171.0375 371.82445312 170.1875 372.41015625 C158.69067791 380.16696692 146.90781733 385.69277734 133.5625 389.5 C132.88348633 389.6949707 132.20447266 389.88994141 131.50488281 390.09082031 C120.87143325 392.92807485 110.66985744 393.86273454 99.70532227 393.14892578 C82.84612983 392.21833361 71.82490127 396.17317533 57.71240234 405.68994141 C52.63989757 409.03967781 47.33916866 411.98695173 42.0625 415 C34.68664683 419.29969344 27.33891184 423.64704467 20.06201172 428.11254883 C13.11509606 432.34115104 6.70053032 432.56624076 -1.3125 431.6875 C-5.62504758 430.17029822 -9.31965801 427.97875132 -13.1875 425.5625 C-14.25556885 424.93013428 -15.3236377 424.29776855 -16.42407227 423.64624023 C-18.64410301 422.3294277 -20.85678219 421.00014379 -23.06201172 419.65869141 C-27.11104381 417.20323962 -31.20437766 414.82962329 -35.30273438 412.45776367 C-38.28182578 410.73155887 -41.25299835 408.99237664 -44.22265625 407.25 C-50.52820419 403.5553669 -56.85544436 399.89897319 -63.1875 396.25 C-64.26765381 395.62746338 -65.34780762 395.00492676 -66.46069336 394.36352539 C-68.65046334 393.10173174 -70.84032355 391.84009466 -73.03027344 390.57861328 C-78.45909942 387.45069852 -83.88569281 384.31891552 -89.3125 381.1875 C-91.47915583 379.93748121 -93.6458225 378.68748122 -95.8125 377.4375 C-108.8125 369.9375 -121.8125 362.4375 -134.8125 354.9375 C-135.88693359 354.31770264 -136.96136719 353.69790527 -138.06835938 353.05932617 C-140.21573373 351.82031961 -142.36287267 350.58090497 -144.50976562 349.34106445 C-149.6032183 346.4002388 -154.69905143 343.46377381 -159.80322266 340.54159546 C-162.2240662 339.15531169 -164.64357889 337.76671453 -167.06298828 336.37792969 C-168.77897617 335.39421796 -170.49689193 334.41387165 -172.21484375 333.43359375 C-173.76365234 332.54414062 -173.76365234 332.54414062 -175.34375 331.63671875 C-176.71370117 330.85300903 -176.71370117 330.85300903 -178.11132812 330.0534668 C-180.51665908 328.56080634 -182.03255071 327.54318627 -182.92928576 324.80224746 C-183.5723708 321.25341673 -183.45673374 317.67285481 -183.45294189 314.07789612 C-183.45739858 312.76111568 -183.45739858 312.76111568 -183.4619453 311.41773361 C-183.47063012 308.47061813 -183.47214035 305.52354328 -183.47363281 302.57641602 C-183.47826104 300.46573805 -183.48328571 298.35506092 -183.48867798 296.24438477 C-183.50180122 290.5068659 -183.50824649 284.76935874 -183.51268864 279.03182721 C-183.51561873 275.44906726 -183.51972337 271.86631051 -183.52419281 268.28355217 C-183.53786589 257.07890925 -183.54753418 245.87427364 -183.5513947 234.66962296 C-183.55587886 221.72556099 -183.57344417 208.78160444 -183.6023953 195.83757454 C-183.62398756 185.83749631 -183.63409762 175.8374478 -183.63543582 165.83734649 C-183.63648536 159.86186067 -183.64242523 153.88647398 -183.66025543 147.91101265 C-183.67669423 142.29268062 -183.67891202 136.67452269 -183.67011642 131.05617523 C-183.66934387 128.9925814 -183.67371736 126.92897837 -183.68357468 124.86540794 C-183.69622993 122.05142531 -183.69045242 119.23806533 -183.67999268 116.42408752 C-183.68804908 115.60482633 -183.69610548 114.78556513 -183.70440602 113.94147784 C-183.66434959 109.34358106 -183.21523883 106.31583075 -180.3125 102.6875 C-177.97229304 101.06440564 -175.73194774 99.67840217 -173.25 98.3125 C-172.51322021 97.89315186 -171.77644043 97.47380371 -171.01733398 97.04174805 C-169.36410288 96.10086431 -167.70808545 95.1648652 -166.04980469 94.23291016 C-162.06404464 91.98265497 -158.10593977 89.68528334 -154.14477539 87.39208984 C-150.80858641 85.46156908 -147.46922446 83.53664757 -144.12890625 81.61328125 C-137.52134965 77.80830182 -130.91662307 73.9984349 -124.3125 70.1875 C-122.14584689 68.9374765 -119.97918021 67.68747653 -117.8125 66.4375 C-116.74 65.81875 -115.6675 65.2 -114.5625 64.5625 C-104.8125 58.9375 -104.8125 58.9375 -101.56201172 57.06225586 C-99.39692929 55.81314482 -97.23189018 54.56395871 -95.06689453 53.31469727 C-89.62634294 50.17547691 -84.18502784 47.03759437 -78.7421875 43.90234375 C-68.29043851 37.880027 -57.84946112 31.84088042 -47.4375 25.75 C-37.1606895 19.73856263 -26.83281011 13.81924685 -16.48681641 7.92797852 C-15.3632373 7.28787842 -14.2396582 6.64777832 -13.08203125 5.98828125 C-12.08792236 5.42278564 -11.09381348 4.85729004 -10.06958008 4.2746582 C-7.29596393 2.72270065 -7.29596393 2.72270065 -4.7019043 0.91870117 C-2.3125 -0.3125 -2.3125 -0.3125 0 0 Z " fill="#4F5561" transform="translate(221.3125,28.3125)"/>
<path d="M0 0 C1.89323825 0.97440361 3.75754088 2.00570096 5.6015625 3.0703125 C6.71821289 3.71178223 7.83486328 4.35325195 8.98535156 5.01416016 C10.19863104 5.71766423 11.41184548 6.42128046 12.625 7.125 C13.88484692 7.85117258 15.14494177 8.57691516 16.40527344 9.30224609 C19.00190905 10.79773141 21.59686581 12.29606895 24.19042969 13.796875 C27.71999712 15.83912361 31.25391698 17.87367149 34.7890625 19.90625 C46.15878567 26.44751233 57.49852783 33.03849929 68.82128906 39.66064453 C76.52024834 44.15527427 84.25468246 48.58599899 92 53 C101.71602354 58.53709225 111.39896207 64.12742834 121.05151367 69.7746582 C128.4566623 74.10546048 135.88051824 78.40292591 143.3125 82.6875 C144.39281494 83.31180908 145.47312988 83.93611816 146.58618164 84.5793457 C151.6533948 87.50577593 156.72794169 90.41652132 161.828125 93.28515625 C162.71717529 93.78893799 163.60622559 94.29271973 164.5222168 94.81176758 C166.17046127 95.74495433 167.82276486 96.67102133 169.47973633 97.58862305 C174.88761149 100.66283447 174.88761149 100.66283447 176 104 C175.36835938 104.35078613 174.73671875 104.70157227 174.0859375 105.06298828 C163.23023649 111.09893011 152.38549001 117.14385893 141.67602539 123.43652344 C139.67420935 124.60938715 137.66678916 125.77273493 135.65405273 126.92675781 C131.04469945 129.57486835 126.55719684 132.26071588 122.2109375 135.32421875 C109.09264169 144.16717716 96.91578102 143.92211405 81.6875 143.19140625 C74.84713145 142.8932829 68.66952147 143.51640791 62 145 C61.29891113 145.14703369 60.59782227 145.29406738 59.87548828 145.44555664 C50.67604294 147.47961089 42.36970379 150.72930499 34 155 C33.07703125 155.45117188 32.1540625 155.90234375 31.203125 156.3671875 C13.55153917 165.39704499 -4.02820475 181.05640951 -13 199 C-16.69813356 197.6027689 -20.09595998 195.93435305 -23.55078125 194.015625 C-24.62908203 193.4175 -25.70738281 192.819375 -26.81835938 192.203125 C-27.98319798 191.55230712 -29.14790819 190.90125939 -30.3125 190.25 C-30.90957764 189.91742188 -31.50665527 189.58484375 -32.12182617 189.2421875 C-41.46426253 184.03773657 -50.71890469 178.69482338 -59.93676758 173.27246094 C-67.39535533 168.89898006 -74.92985795 164.6769828 -82.5 160.5 C-92.10586156 155.19920027 -101.61674918 149.7622081 -111.07543945 144.20361328 C-119.26734387 139.39999056 -127.53721067 134.74586941 -135.83178711 130.12231445 C-145.15262531 124.92518331 -154.42207719 119.64149865 -163.67871094 114.33105469 C-167.22094314 112.29989672 -170.76672956 110.27497272 -174.3125 108.25 C-176.20833333 107.16666667 -178.10416667 106.08333333 -180 105 C-179.54568051 100.45537194 -179.54568051 100.45537194 -177.15600586 98.46118164 C-176.35042236 98.03184326 -175.54483887 97.60250488 -174.71484375 97.16015625 C-173.80452393 96.66217529 -172.8942041 96.16419434 -171.95629883 95.65112305 C-170.46199341 94.86475464 -170.46199341 94.86475464 -168.9375 94.0625 C-166.8141198 92.90545049 -164.69175355 91.7465386 -162.5703125 90.5859375 C-161.4762207 89.99264648 -160.38212891 89.39935547 -159.25488281 88.78808594 C-154.21580793 86.01984528 -149.26578722 83.10562232 -144.3125 80.1875 C-135.5751307 75.06554441 -126.79983213 70.01352029 -118 65 C-108.27865901 59.46031101 -98.59104908 53.86624937 -88.93310547 48.21655273 C-76.22639875 40.78589621 -63.46437407 33.45114245 -50.70898438 26.10449219 C-48.51866135 24.84274639 -46.3285569 23.58062108 -44.13867188 22.31811523 C-41.97940801 21.0738895 -39.81926438 19.83118917 -37.65820312 18.59008789 C-32.13296042 15.41122149 -26.63570875 12.19360517 -21.171875 8.91015625 C-20.07246582 8.254104 -18.97305664 7.59805176 -17.84033203 6.92211914 C-15.74133157 5.66734081 -13.64823373 4.40262015 -11.56201172 3.12670898 C-10.62631348 2.56927002 -9.69061523 2.01183105 -8.7265625 1.4375 C-7.49800537 0.69306641 -7.49800537 0.69306641 -6.24462891 -0.06640625 C-3.52458918 -1.1977345 -2.69736381 -1.10830371 0 0 Z " fill="#00D5F1" transform="translate(230,27)"/>
<path d="M0 0 C20.06085257 14.49644388 32.68246944 35.68240261 36.96875 59.953125 C38.30926933 72.18028614 39.00697527 88.1774557 33.35546875 99.48046875 C28.1757749 97.05694227 23.69103735 94.20526994 20.35546875 89.48046875 C19.87971875 85.78393336 20.0388316 82.41686931 20.2890625 78.703125 C20.35247726 75.62564396 20.27108507 74.30082125 18.60546875 71.79296875 C14.01469612 67.07467466 10.55610667 65.38715668 3.98046875 65.16796875 C-0.61911173 65.22839017 -3.10641618 66.43604416 -6.64453125 69.48046875 C-10.94680715 74.24785556 -12.00735628 77.9179417 -11.92578125 84.19921875 C-11.33633736 88.98026361 -8.49632328 91.73008053 -5.01953125 94.79296875 C-1.67044592 97.17258201 0.0430956 97.61777897 4.10546875 97.60546875 C4.9459375 97.60804688 5.78640625 97.610625 6.65234375 97.61328125 C9.42342147 97.58813849 9.42342147 97.58813849 12.22265625 96.6015625 C16.41864146 96.43937355 17.8113008 97.94702134 20.859375 100.65820312 C21.78556641 101.52928711 21.78556641 101.52928711 22.73046875 102.41796875 C23.37113281 102.99482422 24.01179687 103.57167969 24.671875 104.16601562 C26.24728332 105.58858583 27.80334523 107.03252886 29.35546875 108.48046875 C28.11832929 112.54112747 26.64309082 115.99318407 24.41796875 119.60546875 C23.91394531 120.43304688 23.40992188 121.260625 22.890625 122.11328125 C21.46367457 124.31361704 19.95737529 126.40516296 18.35546875 128.48046875 C14.47196607 127.91430891 12.59776561 126.14202228 9.79296875 123.48046875 C6.23751 120.18083596 2.6329002 117.02384615 -1.14453125 113.98046875 C-5.59651732 110.37886204 -9.8516854 106.61529133 -14.08203125 102.7578125 C-17.75543272 99.49318894 -21.56769662 96.41024891 -25.39453125 93.328125 C-27.64453125 91.48046875 -27.64453125 91.48046875 -29.64453125 89.48046875 C-29.81713867 87.2565918 -29.81713867 87.2565918 -29.75 84.4921875 C-29.43753776 72.13067815 -29.43753776 72.13067815 -34.6171875 61.421875 C-37.71353595 58.58584271 -41.10891384 56.20465732 -44.60302734 53.88525391 C-47.85665559 51.64639037 -50.7533723 49.03193798 -53.70703125 46.41796875 C-54.84842195 45.43795888 -55.99165709 44.46009312 -57.13671875 43.484375 C-59.60517645 41.37284482 -62.06780853 39.25472841 -64.52734375 37.1328125 C-65.48241821 36.31018921 -65.48241821 36.31018921 -66.45678711 35.47094727 C-67.67747497 34.41935352 -68.89709589 33.36651959 -70.11547852 32.31225586 C-72.55887118 30.20978505 -74.95839997 28.27122293 -77.64453125 26.48046875 C-77.796875 23.65234375 -77.796875 23.65234375 -77.58203125 20.23046875 C-77.49339115 15.99907047 -77.49134783 13.81629395 -79.26953125 9.91796875 C-83.8860021 5.18001183 -86.96731973 3.22838502 -93.64453125 2.98046875 C-98.76174119 3.17046417 -101.82522953 3.85213212 -105.64453125 7.48046875 C-109.60787722 11.86100903 -110.22615987 15.37937873 -109.9609375 21.0859375 C-109.30839885 26.02428555 -107.30956277 29.08378692 -103.64453125 32.29296875 C-99.19275657 35.53905445 -96.07258476 35.83640668 -90.64453125 35.48046875 C-87.87500804 34.64767506 -85.31729501 33.60584296 -82.64453125 32.48046875 C-82.05027344 33.02574219 -81.45601563 33.57101563 -80.84375 34.1328125 C-76.36856552 38.20432559 -71.84909514 42.17520808 -67.14453125 45.98046875 C-62.69102282 49.58330703 -58.43219149 53.34464503 -54.20703125 57.2109375 C-50.55907769 60.4418232 -46.73646343 63.44144777 -42.89453125 66.4375 C-40.08938662 68.98453237 -38.77118115 70.94623318 -38.45605469 74.76367188 C-38.4718457 75.58802734 -38.48763672 76.41238281 -38.50390625 77.26171875 C-38.69715734 88.48995802 -38.69715734 88.48995802 -33.89453125 98.17578125 C-31.00453655 100.79573001 -27.83672488 102.99121325 -24.58789062 105.14160156 C-21.39460631 107.34159794 -18.54756992 109.91709919 -15.64453125 112.48046875 C-14.4911952 113.47193021 -13.3362392 114.46151027 -12.1796875 115.44921875 C-9.72722465 117.55113376 -7.27706107 119.65569596 -4.828125 121.76171875 C-4.20099609 122.30054688 -3.57386719 122.839375 -2.92773438 123.39453125 C-1.73443466 124.41988508 -0.54168787 125.44588289 0.65039062 126.47265625 C3.83557498 129.20821197 7.05943551 131.8780142 10.35546875 134.48046875 C9.95743314 137.36622694 9.56537806 138.30236388 7.29296875 140.23046875 C6.33390625 140.84921875 6.33390625 140.84921875 5.35546875 141.48046875 C2.61868934 140.37559725 1.10767051 139.22895972 -0.9921875 137.09765625 C-6.11803844 131.71291407 -6.11803844 131.71291407 -12.8828125 129.17675781 C-15.3411253 129.17575196 -17.75588192 129.29458251 -20.20703125 129.48046875 C-28.61289843 130.06944625 -28.61289843 130.06944625 -32.921875 127.609375 C-35.66658297 125.02218255 -38.14324159 122.30182865 -40.64453125 119.48046875 C-42.46822041 117.92321928 -44.32272869 116.40130011 -46.20703125 114.91796875 C-50.64079196 111.33951507 -54.87290756 107.59593971 -59.08203125 103.7578125 C-62.75543272 100.49318894 -66.56769662 97.41024891 -70.39453125 94.328125 C-72.64453125 92.48046875 -72.64453125 92.48046875 -74.64453125 90.48046875 C-74.68491628 88.23044538 -74.62859886 85.97820992 -74.51953125 83.73046875 C-74.46575981 79.34809676 -74.4613975 76.88899789 -76.26953125 72.85546875 C-80.63550996 68.48949004 -84.72364063 65.70091332 -90.95703125 65.23046875 C-95.59919462 65.54519169 -98.76646687 66.5821557 -102.09375 69.9453125 C-106.27511671 74.84553881 -106.94577175 77.66925431 -106.85546875 83.9453125 C-106.4456351 88.87090584 -104.34378477 91.63400396 -101.26953125 95.35546875 C-96.61899183 99.01953011 -90.21488109 97.98424716 -84.64453125 97.48046875 C-83.95875 97.2278125 -83.27296875 96.97515625 -82.56640625 96.71484375 C-80.64453125 96.48046875 -80.64453125 96.48046875 -78.19921875 98.03515625 C-76.87277344 99.18371094 -76.87277344 99.18371094 -75.51953125 100.35546875 C-74.06160156 101.60457031 -74.06160156 101.60457031 -72.57421875 102.87890625 C-69.08810805 105.97457255 -65.62157499 109.08999851 -62.17578125 112.23046875 C-59.55608315 114.55908928 -56.86937815 116.77609822 -54.14453125 118.98046875 C-49.63676224 122.62748979 -45.30478104 126.42183567 -41.03125 130.33984375 C-40.24363281 131.04625 -39.45601563 131.75265625 -38.64453125 132.48046875 C-37.74863281 133.39828125 -36.85273438 134.31609375 -35.9296875 135.26171875 C-31.47815238 138.26822523 -28.56602138 137.71569498 -23.39453125 137.23046875 C-18.27319353 136.96017456 -14.74752802 136.87114697 -10.1796875 139.39453125 C-7.70022911 141.63564859 -5.56444155 143.74620061 -3.64453125 146.48046875 C-3.64453125 147.14046875 -3.64453125 147.80046875 -3.64453125 148.48046875 C-26.67321676 160.80231086 -51.66558153 165.86678666 -77.421875 158.875 C-98.77429882 152.26744384 -118.21065401 137.11830814 -128.87890625 117.47265625 C-140.84490823 94.54879669 -144.24065087 69.90616228 -136.54296875 44.90234375 C-132.52467884 33.96222542 -127.10418033 24.41219936 -119.64453125 15.48046875 C-119.13535156 14.825625 -118.62617188 14.17078125 -118.1015625 13.49609375 C-89.89925879 -21.32156516 -35.55548073 -24.53985668 0 0 Z " fill="#1C4E7A" transform="translate(368.64453125,212.51953125)"/>
<path d="M0 0 C0.556875 0.226875 1.11375 0.45375 1.6875 0.6875 C1.01920166 1.0592334 0.35090332 1.4309668 -0.33764648 1.81396484 C-17.11938534 11.1533349 -17.11938534 11.1533349 -33.7265625 20.79760742 C-40.03921477 24.53974409 -46.39153766 28.21131678 -52.75 31.875 C-53.85722412 32.51300537 -54.96444824 33.15101074 -56.10522461 33.80834961 C-58.37587068 35.11639477 -60.64662358 36.42425448 -62.91748047 37.73193359 C-68.3841998 40.88082054 -73.84824887 44.03433264 -79.3125 47.1875 C-81.47915311 48.4375235 -83.64581979 49.68752347 -85.8125 50.9375 C-86.885 51.55625 -87.9575 52.175 -89.0625 52.8125 C-124.8125 73.4375 -124.8125 73.4375 -128.06811523 75.31567383 C-130.21614046 76.55496267 -132.36409075 77.79438141 -134.51196289 79.03393555 C-139.59905549 81.96952567 -144.68691847 84.90375672 -149.7774353 87.83340454 C-152.18793748 89.22078095 -154.59801376 90.60889624 -157.00805664 91.99707031 C-158.71393968 92.97923815 -160.42043986 93.96033385 -162.12695312 94.94140625 C-163.67092773 95.83085937 -163.67092773 95.83085937 -165.24609375 96.73828125 C-166.6081897 97.52199097 -166.6081897 97.52199097 -167.99780273 98.3215332 C-169.80376201 99.38727966 -171.56771129 100.52430752 -173.3125 101.6875 C-173.61906932 104.47185075 -173.72804877 107.03633396 -173.71122742 109.82449341 C-173.71787424 110.67558115 -173.72452107 111.52666889 -173.73136932 112.40354717 C-173.75010782 115.27191794 -173.74738678 118.13987556 -173.74487305 121.00830078 C-173.75388359 123.05783686 -173.76420905 125.10736752 -173.77575684 127.15689087 C-173.80343607 132.73512099 -173.81262614 138.31324917 -173.81861091 143.8915391 C-173.82796625 149.71589132 -173.85416721 155.54016654 -173.87861633 161.36447144 C-173.92236343 172.40000504 -173.95085991 183.43552378 -173.97393972 194.47111785 C-174.00094747 207.03203346 -174.04486162 219.59287191 -174.09022844 232.15373254 C-174.18319228 257.99827992 -174.25481916 283.8428515 -174.3125 309.6875 C-173.39243164 309.97923096 -172.47236328 310.27096191 -171.52441406 310.5715332 C-167.72893157 311.89025854 -164.47448067 313.7960258 -161.0625 315.875 C-159.54631085 316.78248405 -158.02933112 317.68864806 -156.51171875 318.59375 C-155.26914307 319.33625 -155.26914307 319.33625 -154.00146484 320.09375 C-148.98582135 323.0665229 -143.92831773 325.96689472 -138.875 328.875 C-137.21645996 329.83055786 -137.21645996 329.83055786 -135.52441406 330.80541992 C-133.25225918 332.11450657 -130.97995991 333.42334262 -128.70751953 334.73193359 C-123.24080025 337.88082051 -117.77672354 341.0342849 -112.3125 344.1875 C-105.79017561 347.95115365 -99.26736237 351.71394623 -92.7421875 355.47265625 C-82.29043801 361.49497329 -71.84950452 367.53419337 -61.4375 373.625 C-51.59230095 379.38312777 -41.69972753 385.05544009 -31.78540039 390.69335938 C-25.95674362 394.01133246 -20.15010705 397.36019617 -14.37890625 400.77734375 C-13.28255859 401.42509766 -12.18621094 402.07285156 -11.05664062 402.74023438 C-8.98783134 403.96577211 -6.92251481 405.19723187 -4.86132812 406.43554688 C-3.93900391 406.98146484 -3.01667969 407.52738281 -2.06640625 408.08984375 C-1.26533447 408.56929443 -0.4642627 409.04874512 0.36108398 409.54272461 C2.91361417 410.79876554 4.84478445 411.47716454 7.6875 411.6875 C10.13237134 410.79678414 10.13237134 410.79678414 12.51171875 409.25 C13.44491943 408.6921582 14.37812012 408.13431641 15.33959961 407.55957031 C16.8421228 406.63289551 16.8421228 406.63289551 18.375 405.6875 C20.5358583 404.38962547 22.69733867 403.09278618 24.859375 401.796875 C25.98021484 401.11947266 27.10105469 400.44207031 28.25585938 399.74414062 C34.91496093 395.73579539 41.67961081 391.9052753 48.4284668 388.05078125 C53.26277852 385.28015867 58.05978828 382.48755543 62.75390625 379.484375 C63.51324463 379.00709961 64.27258301 378.52982422 65.05493164 378.03808594 C66.4132867 377.17782032 67.75930783 376.2975275 69.08764648 375.39160156 C73.64416353 372.53131512 76.80276112 372.51892339 82.06787109 373.30664062 C109.32519527 377.26949484 140.39169722 369.57672056 162.56445312 353.31054688 C164.92116879 351.50893564 167.2590317 349.69576666 169.52929688 347.78588867 C172.64118369 345.21633299 173.45460305 344.6875 177.6875 344.6875 C179.8125 345.75 179.8125 345.75 181.6875 347.6875 C181.91953125 348.73808594 182.1515625 349.78867187 182.390625 350.87109375 C183.67430482 355.65858817 186.78331534 358.37287793 190.3125 361.6875 C190.90417969 362.265 191.49585938 362.8425 192.10546875 363.4375 C195.13415401 366.36806371 198.24025896 369.17758335 201.44140625 371.91796875 C206.90543485 376.65760965 211.92424401 381.85364234 217 387 C218.95151273 388.97817187 220.90637692 390.95294457 222.86328125 392.92578125 C224.14585815 394.2257605 224.14585815 394.2257605 225.4543457 395.55200195 C228.59190912 398.55235914 230.68516116 399.99831216 235 400.125 C238.87401095 400.00023314 241.2195715 399.31012562 244.0859375 396.5078125 C247.75635308 392.33607187 251.27738445 388.07470748 254.6875 383.6875 C255.17089844 383.08164062 255.65429688 382.47578125 256.15234375 381.8515625 C257.93408412 379.45477296 258.69440206 377.64608767 259.1875 374.6875 C258.08744167 368.08715005 253.81562241 364.71554856 248.64624023 360.99438477 C247.85548096 360.43936279 247.06472168 359.88434082 246.25 359.3125 C244.54296745 358.08644809 242.83728931 356.85850871 241.1328125 355.62890625 C240.24368164 354.98969238 239.35455078 354.35047852 238.43847656 353.69189453 C232.9040496 349.65944464 227.49445492 345.46098591 222.07055664 341.28173828 C219.62027846 339.40225121 217.15755886 337.54089926 214.6875 335.6875 C213.80723145 335.01831543 212.92696289 334.34913086 212.02001953 333.65966797 C210.71266846 332.69697998 210.71266846 332.69697998 209.37890625 331.71484375 C208.59845947 331.133396 207.8180127 330.55194824 207.01391602 329.95288086 C204.32970768 328.49289012 202.69418051 328.53083612 199.6875 328.6875 C197.36878811 327.27917174 195.6909285 325.55115442 193.6875 323.6875 C195.07607296 319.00907725 197.10190683 314.96891947 199.5 310.75 C207.57203903 296.03620176 211.88848279 279.44189214 212.6875 262.6875 C212.749375 261.43646484 212.749375 261.43646484 212.8125 260.16015625 C213.47865936 232.47290804 204.33585439 206.58595784 187.6875 184.6875 C187.0275 184.0275 186.3675 183.3675 185.6875 182.6875 C185.49958085 180.06724279 185.43564215 177.55358685 185.46044922 174.93310547 C185.46015717 174.13302063 185.45986511 173.33293579 185.45956421 172.50860596 C185.46096044 169.85719047 185.4765353 167.20605406 185.4921875 164.5546875 C185.49591659 162.71908726 185.49876405 160.88348502 185.50076294 159.04788208 C185.5084076 154.21122768 185.5280632 149.37469297 185.5501709 144.53808594 C185.57061143 139.60483418 185.57976081 134.67156313 185.58984375 129.73828125 C185.61130833 120.05463485 185.64545428 110.37107737 185.6875 100.6875 C184.52677727 100.23241058 184.52677727 100.23241058 183.34260559 99.76812744 C180.61823932 98.65931092 178.13911709 97.36006459 175.57421875 95.921875 C174.58623291 95.36894775 173.59824707 94.81602051 172.58032227 94.24633789 C171.52256592 93.64942139 170.46480957 93.05250488 169.375 92.4375 C168.26632568 91.81415771 167.15765137 91.19081543 166.01538086 90.54858398 C156.54809123 85.20876695 147.15450035 79.74626975 137.77734375 74.25 C131.47179581 70.5553669 125.14455564 66.89897319 118.8125 63.25 C117.73234619 62.62746338 116.65219238 62.00492676 115.53930664 61.36352539 C113.34953666 60.10173174 111.15967645 58.84009466 108.96972656 57.57861328 C103.54090058 54.45069852 98.11430719 51.31891552 92.6875 48.1875 C90.52084417 46.93748121 88.3541775 45.68748122 86.1875 44.4375 C81.85416667 41.9375 77.52083333 39.4375 73.1875 36.9375 C72.1142749 36.31834717 71.0410498 35.69919434 69.93530273 35.0612793 C67.77590605 33.8154423 65.61656331 32.56951182 63.45727539 31.32348633 C57.92982403 28.13401047 52.40134879 24.94633115 46.87109375 21.76171875 C34.77563954 14.79427118 22.69964469 7.79775277 10.6875 0.6875 C12.2421875 -0.0625 12.2421875 -0.0625 14.6875 -0.3125 C17.20450447 0.91830903 19.45383094 2.1983605 21.8125 3.6875 C23.34663676 4.6227681 24.88186498 5.55624734 26.41796875 6.48828125 C27.2589209 7.00213379 28.09987305 7.51598633 28.96630859 8.04541016 C33.97356034 11.0670121 39.05361977 13.96279717 44.125 16.875 C46.37382852 18.1703462 48.62252468 19.46592222 50.87109375 20.76171875 C52.00015137 21.41188965 53.12920898 22.06206055 54.29248047 22.73193359 C59.7591998 25.88082054 65.22324887 29.03433264 70.6875 32.1875 C72.85415311 33.4375235 75.02081979 34.68752347 77.1875 35.9375 C98.85416667 48.4375 120.52083333 60.9375 142.1875 73.4375 C143.79866699 74.36695435 143.79866699 74.36695435 145.44238281 75.31518555 C147.59292543 76.55597033 149.74331792 77.79701535 151.89355469 79.03833008 C156.95127813 81.95769474 162.01044493 84.87446209 167.07507324 87.78182983 C169.45673502 89.14924766 171.8375302 90.51817039 174.21826172 91.88720703 C175.89076021 92.84814553 177.56450336 93.80691672 179.23828125 94.765625 C193.25909841 102.83069682 193.25909841 102.83069682 194.6875 105.6875 C194.75255072 108.13658061 194.75768251 110.55648194 194.71826172 113.00439453 C194.70214853 114.56991174 194.68645198 116.13543328 194.67111206 117.70095825 C194.66157375 118.53408665 194.65203545 119.36721504 194.6422081 120.22558975 C194.5904941 125.58851044 194.5964149 130.95175221 194.59084892 136.31488228 C194.58267682 141.01418769 194.55534974 145.7118242 194.48535156 150.41064453 C194.41863517 154.96543727 194.40706212 159.51759479 194.43060684 164.07278061 C194.43000285 165.7957313 194.41032949 167.51880084 194.36983871 169.24127579 C194.10132707 181.29420852 196.32813239 188.56018976 203.89822388 198.03121948 C223.03734335 221.9788838 224.85024246 258.63663363 221.67382812 287.72729492 C219.84796107 302.47479898 214.66483515 316.15984677 208.6875 329.6875 C209.42145996 329.78844971 210.15541992 329.88939941 210.91162109 329.9934082 C214.00308173 330.76640931 215.6084819 331.83310145 218.1015625 333.79296875 C218.93574707 334.43999756 219.76993164 335.08702637 220.62939453 335.75366211 C221.51481934 336.45370361 222.40024414 337.15374512 223.3125 337.875 C225.19680757 339.33996935 227.08224864 340.80348177 228.96875 342.265625 C229.92136719 343.00619141 230.87398438 343.74675781 231.85546875 344.50976562 C236.12045183 347.78939055 240.4644908 350.95682613 244.8125 354.125 C266.01910824 369.68232473 266.01910824 369.68232473 268.6875 377.6875 C269.63336476 392.16650674 265.94647037 398.91623114 256.6875 409.6875 C256.0378125 410.48414063 255.388125 411.28078125 254.71875 412.1015625 C254.1309375 412.81054688 253.543125 413.51953125 252.9375 414.25 C252.42703125 414.87003906 251.9165625 415.49007813 251.390625 416.12890625 C246.73956791 420.38526354 241.20508018 420.05333129 235.25 420.0625 C234.41662109 420.08699219 233.58324219 420.11148437 232.72460938 420.13671875 C223.79301989 420.17908202 219.04996024 415.36451448 212.875 409.5 C212.21064941 408.87432129 211.54629883 408.24864258 210.86181641 407.60400391 C202.84414454 399.98748426 195.06736166 392.12131089 187.29370117 384.25708008 C186.5075518 383.46448036 186.5075518 383.46448036 185.70552063 382.65586853 C184.27159648 381.20987038 182.84053309 379.76103695 181.40966797 378.31201172 C178.60336117 375.6063796 175.71018275 373.14575605 172.6875 370.6875 C171.8625 371.25597656 171.0375 371.82445312 170.1875 372.41015625 C158.69067791 380.16696692 146.90781733 385.69277734 133.5625 389.5 C132.88348633 389.6949707 132.20447266 389.88994141 131.50488281 390.09082031 C120.87143325 392.92807485 110.66985744 393.86273454 99.70532227 393.14892578 C82.84612983 392.21833361 71.82490127 396.17317533 57.71240234 405.68994141 C52.63989757 409.03967781 47.33916866 411.98695173 42.0625 415 C34.68664683 419.29969344 27.33891184 423.64704467 20.06201172 428.11254883 C13.11509606 432.34115104 6.70053032 432.56624076 -1.3125 431.6875 C-5.62504758 430.17029822 -9.31965801 427.97875132 -13.1875 425.5625 C-14.25556885 424.93013428 -15.3236377 424.29776855 -16.42407227 423.64624023 C-18.64410301 422.3294277 -20.85678219 421.00014379 -23.06201172 419.65869141 C-27.11104381 417.20323962 -31.20437766 414.82962329 -35.30273438 412.45776367 C-38.28182578 410.73155887 -41.25299835 408.99237664 -44.22265625 407.25 C-50.52820419 403.5553669 -56.85544436 399.89897319 -63.1875 396.25 C-64.26765381 395.62746338 -65.34780762 395.00492676 -66.46069336 394.36352539 C-68.65046334 393.10173174 -70.84032355 391.84009466 -73.03027344 390.57861328 C-78.45909942 387.45069852 -83.88569281 384.31891552 -89.3125 381.1875 C-91.47915583 379.93748121 -93.6458225 378.68748122 -95.8125 377.4375 C-108.8125 369.9375 -121.8125 362.4375 -134.8125 354.9375 C-135.88693359 354.31770264 -136.96136719 353.69790527 -138.06835938 353.05932617 C-140.21573373 351.82031961 -142.36287267 350.58090497 -144.50976562 349.34106445 C-149.6032183 346.4002388 -154.69905143 343.46377381 -159.80322266 340.54159546 C-162.2240662 339.15531169 -164.64357889 337.76671453 -167.06298828 336.37792969 C-168.77897617 335.39421796 -170.49689193 334.41387165 -172.21484375 333.43359375 C-173.76365234 332.54414062 -173.76365234 332.54414062 -175.34375 331.63671875 C-176.71370117 330.85300903 -176.71370117 330.85300903 -178.11132812 330.0534668 C-180.51665908 328.56080634 -182.03255071 327.54318627 -182.92928576 324.80224746 C-183.5723708 321.25341673 -183.45673374 317.67285481 -183.45294189 314.07789612 C-183.45739858 312.76111568 -183.45739858 312.76111568 -183.4619453 311.41773361 C-183.47063012 308.47061813 -183.47214035 305.52354328 -183.47363281 302.57641602 C-183.47826104 300.46573805 -183.48328571 298.35506092 -183.48867798 296.24438477 C-183.50180122 290.5068659 -183.50824649 284.76935874 -183.51268864 279.03182721 C-183.51561873 275.44906726 -183.51972337 271.86631051 -183.52419281 268.28355217 C-183.53786589 257.07890925 -183.54753418 245.87427364 -183.5513947 234.66962296 C-183.55587886 221.72556099 -183.57344417 208.78160444 -183.6023953 195.83757454 C-183.62398756 185.83749631 -183.63409762 175.8374478 -183.63543582 165.83734649 C-183.63648536 159.86186067 -183.64242523 153.88647398 -183.66025543 147.91101265 C-183.67669423 142.29268062 -183.67891202 136.67452269 -183.67011642 131.05617523 C-183.66934387 128.9925814 -183.67371736 126.92897837 -183.68357468 124.86540794 C-183.69622993 122.05142531 -183.69045242 119.23806533 -183.67999268 116.42408752 C-183.68804908 115.60482633 -183.69610548 114.78556513 -183.70440602 113.94147784 C-183.66434959 109.34358106 -183.21523883 106.31583075 -180.3125 102.6875 C-177.97229304 101.06440564 -175.73194774 99.67840217 -173.25 98.3125 C-172.51322021 97.89315186 -171.77644043 97.47380371 -171.01733398 97.04174805 C-169.36410288 96.10086431 -167.70808545 95.1648652 -166.04980469 94.23291016 C-162.06404464 91.98265497 -158.10593977 89.68528334 -154.14477539 87.39208984 C-150.80858641 85.46156908 -147.46922446 83.53664757 -144.12890625 81.61328125 C-137.52134965 77.80830182 -130.91662307 73.9984349 -124.3125 70.1875 C-122.14584689 68.9374765 -119.97918021 67.68747653 -117.8125 66.4375 C-116.74 65.81875 -115.6675 65.2 -114.5625 64.5625 C-104.8125 58.9375 -104.8125 58.9375 -101.56201172 57.06225586 C-99.39692929 55.81314482 -97.23189018 54.56395871 -95.06689453 53.31469727 C-89.62634294 50.17547691 -84.18502784 47.03759437 -78.7421875 43.90234375 C-68.29043851 37.880027 -57.84946112 31.84088042 -47.4375 25.75 C-37.1606895 19.73856263 -26.83281011 13.81924685 -16.48681641 7.92797852 C-15.3632373 7.28787842 -14.2396582 6.64777832 -13.08203125 5.98828125 C-12.08792236 5.42278564 -11.09381348 4.85729004 -10.06958008 4.2746582 C-7.29596393 2.72270065 -7.29596393 2.72270065 -4.7019043 0.91870117 C-2.3125 -0.3125 -2.3125 -0.3125 0 0 Z " fill="#000000" transform="translate(221.3125,28.3125)"/>
<path d="M0 0 C2.70518428 0.79567224 4.19080298 1.67185853 6.36499023 3.43481445 C7.06342041 3.99136719 7.76185059 4.54791992 8.48144531 5.12133789 C9.22418701 5.72623047 9.96692871 6.33112305 10.73217773 6.9543457 C12.34112228 8.2364708 13.95185816 9.51635059 15.56420898 10.79418945 C16.80871826 11.78201416 16.80871826 11.78201416 18.07836914 12.78979492 C22.12679598 15.95490021 26.26998408 18.9864718 30.41967773 22.0168457 C31.99940145 23.17659802 33.57883507 24.33674558 35.15795898 25.49731445 C35.90770996 26.04822754 36.65746094 26.59914063 37.42993164 27.16674805 C38.14842285 27.69478027 38.86691406 28.2228125 39.60717773 28.7668457 C40.28312988 29.26265137 40.95908203 29.75845703 41.65551758 30.26928711 C43.47994458 31.61328627 45.29489905 32.96903085 47.10717773 34.3293457 C48.10749023 35.07313477 49.10780273 35.81692383 50.13842773 36.58325195 C53.54039094 39.59226688 55.37303264 42.19472865 56.04467773 46.7043457 C55.09522708 53.35050031 49.32923096 58.61057441 45.04467773 63.5168457 C44.46782227 64.18844727 43.8909668 64.86004883 43.29663086 65.55200195 C42.73782227 66.19524414 42.17901367 66.83848633 41.60327148 67.5012207 C41.09981201 68.08097656 40.59635254 68.66073242 40.07763672 69.25805664 C37.45969065 71.94424404 35.21869866 73.15428955 31.54467773 73.4543457 C27.09158802 73.28043361 25.16935518 71.91462708 21.96264648 68.88793945 C21.0922876 68.07075439 20.22192871 67.25356934 19.32519531 66.41162109 C14.82828507 62.03588871 10.38657541 57.61063516 5.98217773 53.1418457 C0.58946789 47.67098064 -4.79630315 42.28557129 -10.62866211 37.28198242 C-13.12482524 35.13817002 -15.51863841 32.92076909 -17.89282227 30.6418457 C-18.74875977 29.83489258 -19.60469727 29.02793945 -20.48657227 28.1965332 C-22.39282227 25.7668457 -22.39282227 25.7668457 -22.85766602 23.1262207 C-22.2003207 19.78977893 -20.11764205 18.65877822 -17.53344727 16.6418457 C-14.06289915 13.60194954 -11.35526778 9.96611053 -8.50610352 6.3527832 C-7.8087207 5.49942383 -7.11133789 4.64606445 -6.39282227 3.7668457 C-5.74700195 2.97536133 -5.10118164 2.18387695 -4.43579102 1.3684082 C-2.39282227 -0.2331543 -2.39282227 -0.2331543 0 0 Z " fill="#4F5460" transform="translate(425.392822265625,356.233154296875)"/>
<path d="M0 0 C7.49746193 6.42639594 7.49746193 6.42639594 11 10.25 C25.90097222 25.25182482 48.14696283 35.95224841 69 39 C67.74327861 42.77016416 66.70437669 43.00711403 63.27734375 44.86328125 C62.27574219 45.41338867 61.27414062 45.96349609 60.2421875 46.53027344 C58.60636719 47.41247559 58.60636719 47.41247559 56.9375 48.3125 C54.64350393 49.57234997 52.3505611 50.83411932 50.05859375 52.09765625 C49.47165741 52.4201535 48.88472107 52.74265076 48.27999878 53.07492065 C42.29642656 56.36920314 36.39257766 59.79586182 30.5 63.25 C29.51362549 63.8267749 28.52725098 64.4035498 27.51098633 64.99780273 C22.92705642 67.68250653 18.35228804 70.38181711 13.7890625 73.1015625 C12.99564453 73.57303711 12.20222656 74.04451172 11.38476562 74.53027344 C9.92009851 75.40185797 8.45770387 76.27727724 6.99804688 77.15722656 C2.2221875 80 2.2221875 80 0 80 C0 53.6 0 27.2 0 0 Z " fill="#1A4D79" transform="translate(227,361)"/>
<path d="M0 0 C0.33 0 0.66 0 1 0 C1 26.73 1 53.46 1 81 C-0.65 79.35 -2.3 77.7 -4 76 C-10.60553382 69.68872191 -17.29632262 63.92568463 -25 59 C-26.36898437 58.12214844 -26.36898437 58.12214844 -27.765625 57.2265625 C-38.83951829 50.44602356 -50.34100462 46.03496545 -62.98535156 43.29223633 C-64.67025957 42.91713061 -66.33772863 42.4652668 -68 42 C-68.33 41.34 -68.66 40.68 -69 40 C-68.45923828 39.7097998 -67.91847656 39.41959961 -67.36132812 39.12060547 C-56.45127752 33.25176643 -45.6246074 27.26684026 -34.9375 21 C-33.94991699 20.42088867 -32.96233398 19.84177734 -31.94482422 19.24511719 C-29.95874197 18.07988835 -27.97273889 16.91452455 -25.98681641 15.74902344 C-21.04414191 12.85468633 -16.08885621 9.9828347 -11.125 7.125 C-10.23288818 6.60679687 -9.34077637 6.08859375 -8.42163086 5.5546875 C-7.6044458 5.08546875 -6.78726074 4.61625 -5.9453125 4.1328125 C-5.22875488 3.71918457 -4.51219727 3.30555664 -3.77392578 2.87939453 C-2 2 -2 2 0 2 C0 1.34 0 0.68 0 0 Z " fill="#1B4D79" transform="translate(406,129)"/>
<path d="M0 0 C5.01791684 2.41935276 8.49958655 5.9991731 11 11 C11.09608608 12.83128771 11.12982579 14.66619959 11.125 16.5 C11.12886719 17.96953125 11.12886719 17.96953125 11.1328125 19.46875 C11 22 11 22 10 24 C10.56589844 24.24621094 11.13179688 24.49242187 11.71484375 24.74609375 C14.39248258 26.21536224 16.33043612 27.97752435 18.5625 30.0625 C22.12296928 33.33018473 25.7393292 36.46479193 29.5 39.5 C33.95054387 43.10043998 38.20432564 46.86285226 42.43359375 50.71875 C46.14215923 54.01525265 49.98848766 57.13235469 53.84765625 60.25 C56 62 56 62 57 63 C57.10665046 64.67480726 57.1570705 66.35326007 57.18359375 68.03125 C57.21933614 79.62030797 57.21933614 79.62030797 60.96875 90.27734375 C63.52230131 92.51170115 66.09885357 94.24498549 69 96 C70.85354644 97.47494972 72.68682472 98.97569475 74.5 100.5 C75.4178125 101.2425 76.335625 101.985 77.28125 102.75 C80.76844136 105.63595147 84.09758894 108.67700111 87.44140625 111.7265625 C91.07965124 114.9593237 94.85779763 118.00813104 98.65234375 121.0546875 C102.46144048 124.2109773 102.46144048 124.2109773 104 126 C103.83394098 128.65694438 103.21086001 129.76383679 101.4375 131.75 C100.7259375 132.36875 100.7259375 132.36875 100 133 C91.42497406 129.19109313 84.39104217 121.50196248 77.53125 115.25 C74.03094792 112.13862037 70.38727259 109.21736933 66.74609375 106.2734375 C63.12409222 103.27485302 59.65257546 100.12707925 56.19140625 96.9453125 C54.10573772 94.986417 54.10573772 94.986417 51.90820312 93.68652344 C50 92 50 92 49.40991211 89.71923828 C49.36616455 88.84509277 49.32241699 87.97094727 49.27734375 87.0703125 C49.18163086 85.62978516 49.18163086 85.62978516 49.08398438 84.16015625 C49.03564453 83.15855469 48.98730469 82.15695312 48.9375 81.125 C48.5477354 70.88083356 48.5477354 70.88083356 42.65234375 62.859375 C41.75644531 62.16328125 40.86054688 61.4671875 39.9375 60.75 C36.18083992 57.76836703 32.53817695 54.73813954 29 51.5 C24.66803858 47.55310182 20.18334716 43.8386551 15.62890625 40.15234375 C12.00849313 37.18823137 8.4929259 34.11260732 5 31 C3.824375 31.495 2.64875 31.99 1.4375 32.5 C-3.70276093 34.40380034 -7.80254064 34.76238386 -13.0625 32.9375 C-17.63020417 29.92475895 -21.25296399 26.24110803 -23 21 C-23.52166057 16.03139685 -23.5724051 12.14481021 -21.3125 7.625 C-14.77754882 0.20694731 -9.6533759 -0.90974223 0 0 Z " fill="#F9FAFB" transform="translate(281,215)"/>
<path d="M0 0 C4.52049994 2.45774754 7.55699234 5.73898468 9.875 10.375 C9.79121094 11.34566406 9.70742188 12.31632812 9.62109375 13.31640625 C8.92226422 20.54237053 8.92226422 20.54237053 11.7109375 26.984375 C14.32436878 29.30925708 17.0244287 31.34869028 19.875 33.375 C21.71781927 34.8633307 23.55120869 36.36341263 25.375 37.875 C26.2928125 38.6175 27.210625 39.36 28.15625 40.125 C31.64201771 43.00977328 34.9698149 46.04959884 38.3125 49.09765625 C41.98590147 52.36227981 45.79816537 55.44521984 49.625 58.52734375 C51.875 60.375 51.875 60.375 53.875 62.375 C55.93404475 62.23408478 57.99296072 62.08543088 60.04760742 61.890625 C68.0600236 61.2434713 73.26449566 61.74572618 79.5715332 67.02026367 C82.4601973 69.71127301 85.20294445 72.46729231 87.875 75.375 C85.625 77.875 85.625 77.875 82.875 80.375 C81.555 80.375 80.235 80.375 78.875 80.375 C77.18359375 78.625 77.18359375 78.625 75.3125 76.375 C72.0483427 73.24617261 69.89251642 72.12267003 65.44921875 72.1953125 C63.79860222 72.28145607 62.14875224 72.38350249 60.5 72.5 C51.98834935 73.01101073 51.98834935 73.01101073 47.5859375 70.49609375 C44.84672678 67.91081562 42.3727982 65.19242166 39.875 62.375 C38.05131084 60.81775053 36.19680256 59.29583136 34.3125 57.8125 C30.73671531 54.92651207 27.27098682 51.97055196 23.875 48.875 C18.70618151 44.16783037 13.32386579 39.75250662 7.875 35.375 C7.02550781 34.60800781 6.17601562 33.84101563 5.30078125 33.05078125 C3.09799285 31.13619272 3.09799285 31.13619272 0.953125 31.59375 C0.26734375 31.8515625 -0.4184375 32.109375 -1.125 32.375 C-11.8266134 33.62069045 -11.8266134 33.62069045 -16.68359375 30.98828125 C-21.15051692 27.20983798 -23.75181249 23.95037709 -24.3671875 18.0546875 C-24.66061963 12.2723484 -24.08752788 8.85891313 -20.125 4.375 C-14.07463554 -1.43840502 -7.99564524 -3.64262855 0 0 Z " fill="#F9FAFB" transform="translate(285.125,278.625)"/>
<path d="M0 0 C4.3036603 2.48288094 6.9983568 5.37171359 9.25 9.875 C9.14300781 10.82246094 9.03601563 11.76992188 8.92578125 12.74609375 C8.11360848 19.46032711 8.11360848 19.46032711 10.42333984 25.60888672 C13.65987119 29.15416264 17.38052269 32.05350613 21.25 34.875 C20.26 37.845 19.27 40.815 18.25 43.875 C14.17240684 40.87045767 10.2867995 37.93546059 6.625 34.4375 C3.97915307 32.0876778 3.97915307 32.0876778 0.4375 32 C-0.614375 32.28875 -1.66625 32.5775 -2.75 32.875 C-7.6974454 33.35274023 -11.54658002 33.46535697 -16.0625 31.25 C-24.44104692 23.84570272 -24.44104692 23.84570272 -24.953125 18.921875 C-25.05800664 13.78267457 -24.75562559 10.23800489 -21.75 5.875 C-14.89061004 -0.88912065 -9.49629862 -2.84888959 0 0 Z " fill="#F8FAFB" transform="translate(380.75,278.125)"/>
<path d="M0 0 C2.64 1.98 5.28 3.96 8 6 C2.60196396 13.52883974 -3.4488815 20.4488815 -10 27 C-12.31 25.02 -14.62 23.04 -17 21 C-16.236875 20.13375 -15.47375 19.2675 -14.6875 18.375 C-9.57675573 12.42683257 -4.82002133 6.18369284 0 0 Z " fill="#E0E3EC" transform="translate(414,351)"/>
<path d="M0 0 C2.875 2.0625 2.875 2.0625 5 5 C5.62601538 8.96476406 5.65946039 10.99762021 3.4375 14.375 C0.14507816 16.5699479 -2.04169355 17.06944397 -6 17 C-8.98747189 15.02953982 -10.61681046 13.57637321 -11.48046875 10.0234375 C-11.73997051 6.27819584 -11.30440367 4.35812196 -8.875 1.5 C-5.46714413 -0.27801176 -3.78454468 -0.70960213 0 0 Z " fill="#24547E" transform="translate(281,286)"/>
<path d="M0 0 C3.74225404 1.1566967 5.28964665 1.79776291 7.4375 5.0625 C8 8.5 8 8.5 7.4375 12.0625 C4.99151113 15.44371991 3.54453441 16.83186783 -0.5625 17.6875 C-4.66953441 16.83186783 -6.11651113 15.44371991 -8.5625 12.0625 C-9.36035988 7.59448469 -9.07984028 5.81499495 -6.5 2.0625 C-3.5625 0.0625 -3.5625 0.0625 0 0 Z " fill="#23537E" transform="translate(275.5625,222.9375)"/>
<path d="M0 0 C3.5 0.625 3.5 0.625 6.5 2.6875 C8.5 5.625 8.5 5.625 8.5625 9.1875 C7.4058033 12.92975404 6.76473709 14.47714665 3.5 16.625 C0.0625 17.1875 0.0625 17.1875 -3.5 16.625 C-6.88121991 14.17901113 -8.26936783 12.73203441 -9.125 8.625 C-8.00794016 3.26311277 -5.32967295 0.95172731 0 0 Z " fill="#23537E" transform="translate(373.5,285.375)"/>
</svg>
